#!OML:ASF I:\Actors\actors\Patient Classification 1\Patient 1\Session 1\Subject1.ASF
:FULLY-SPECIFIED
:DEGREES
1004
root 0.796513 17.5079 8.80888 7.61132 -0.506762 -8.87834
lowerback -1.32269 1.2909 6.84376
upperback -4.9354 1.90689 2.65934
thorax -4.2547 0.742221 -1.11269
lowerneck -7.73462 -4.7653 -2.44439
upperneck 46.5121 -9.95967 5.99284
head 20.0615 -3.65378 1.65657
rclavicle 7.34261e-015 -4.91992e-015
rhumerus 11.1729 55.2664 -89.8121
rradius 143.041
rwrist -42.6532
rhand -8.64914 -72.0751
rfingers 7.12502
rthumb 17.2842 101.326
lclavicle 7.34261e-015 -4.91992e-015
lhumerus -55.0527 -10.4176 107.911
lradius 120.516
lwrist 27.0335
lhand -50.0967 -37.9422
lfingers 7.12502
lthumb -22.6819 -9.25515
rfemur -2.37091 24.0502 26.5232
rtibia 4.47685
rfoot -13.2361 -22.0275
rtoes 1.45724
lfemur 6.08508 -40.3683 -11.3188
ltibia -3.57349
lfoot -18.337 47.3793
ltoes 4.0197
1005
root 0.796738 17.5078 8.8087 7.6074 -0.461159 -8.86264
lowerback -1.29 1.34154 6.86004
upperback -4.95639 1.97656 2.58035
thorax -4.28735 0.773257 -1.20576
lowerneck -7.85768 -4.83553 -2.37931
upperneck 46.5803 -10.0893 5.97089
head 20.1531 -3.6896 1.60808
rclavicle -4.26145e-015 1.64494e-014
rhumerus 11.1949 55.4072 -89.7898
rradius 143.146
rwrist -42.6441
rhand -9.76126 -72.2105
rfingers 7.12502
rthumb 16.2135 101.552
lclavicle -4.26145e-015 1.64494e-014
lhumerus -54.9101 -10.6169 107.868
lradius 120.464
lwrist 26.7625
lhand -50.0932 -37.8952
lfingers 7.12502
lthumb -22.6785 -9.20778
rfemur -2.3556 24.0279 26.5107
rtibia 4.45078
rfoot -13.2079 -22.0652
rtoes 1.46634
lfemur 6.05353 -40.3654 -11.3153
ltibia -3.55728
lfoot -18.2847 47.3409
ltoes 3.80519
1006
root 0.796696 17.5077 8.80822 7.61067 -0.420163 -8.86112
lowerback -1.30399 1.2151 6.70928
upperback -4.9906 1.81221 2.73643
thorax -4.33519 0.698923 -0.957345
lowerneck -7.83348 -4.72426 -2.62791
upperneck 46.6391 -9.82096 5.9072
head 20.1736 -3.63721 1.67318
rclavicle 1.46153e-014 -3.98066e-014
rhumerus 11.2146 56.0361 -89.7703
rradius 143.272
rwrist -42.837
rhand -10.7648 -72.3693
rfingers 7.12502
rthumb 15.247 101.787
lclavicle 1.46153e-014 -3.98066e-014
lhumerus -54.6622 -10.2171 107.888
lradius 120.426
lwrist 26.3097
lhand -50.084 -38.121
lfingers 7.12502
lthumb -22.6697 -9.43245
rfemur -2.35439 24.0102 26.5124
rtibia 4.43523
rfoot -13.1753 -22.1074
rtoes 1.47927
lfemur 6.00716 -40.3322 -11.2803
ltibia -3.54516
lfoot -18.3629 47.2655
ltoes 3.80738
1007
root 0.796715 17.5074 8.80862 7.60343 -0.379105 -8.85225
lowerback -1.34423 0.975548 6.45001
upperback -5.05279 1.49941 3.026
thorax -4.41021 0.557085 -0.506644
lowerneck -7.61875 -4.49562 -3.08872
upperneck 46.6798 -9.33026 5.89771
head 20.123 -3.53643 1.85032
rclavicle -9.70318e-015 1.94312e-014
rhumerus 11.0496 56.9625 -89.9203
rradius 143.392
rwrist -43.0827
rhand -11.7286 -72.5738
rfingers 7.12502
rthumb 14.3186 102.06
lclavicle -9.70318e-015 1.94312e-014
lhumerus -54.4728 -9.41676 107.937
lradius 120.444
lwrist 25.9272
lhand -50.0684 -38.9132
lfingers 7.12502
lthumb -22.6547 -10.2228
rfemur -2.33014 23.9904 26.5132
rtibia 4.41803
rfoot -13.181 -22.1272
rtoes 1.40703
lfemur 6.00284 -40.3419 -11.2857
ltibia -3.54635
lfoot -18.3389 47.2456
ltoes 3.68757
1008
root 0.796271 17.5071 8.80906 7.58917 -0.354596 -8.82232
lowerback -1.35754 0.858541 6.28391
upperback -5.09255 1.3471 3.15971
thorax -4.45852 0.489239 -0.272469
lowerneck -7.46309 -4.39746 -3.2978
upperneck 46.654 -9.09548 5.85676
head 20.044 -3.49266 1.91376
rclavicle -1.53685e-014 5.59579e-014
rhumerus 10.9215 57.5201 -90.0193
rradius 143.467
rwrist -43.2798
rhand -12.6892 -72.7107
rfingers 7.12502
rthumb 13.3927 102.26
lclavicle -1.53685e-014 5.59579e-014
lhumerus -54.3199 -9.04116 107.953
lradius 120.427
lwrist 25.7026
lhand -50.0315 -39.5071
lfingers 7.12502
lthumb -22.6194 -10.8124
rfemur -2.303 23.9764 26.4899
rtibia 4.40466
rfoot -13.2015 -22.1379
rtoes 1.26907
lfemur 6.02132 -40.367 -11.3303
ltibia -3.55112
lfoot -18.2609 47.257
ltoes 3.53713
1009
root 0.795739 17.5067 8.80921 7.58277 -0.344886 -8.81209
lowerback -1.36145 0.859187 6.24933
upperback -5.10095 1.34785 3.16292
thorax -4.46561 0.490825 -0.249949
lowerneck -7.41609 -4.40712 -3.32747
upperneck 46.6003 -9.10243 5.87004
head 19.9952 -3.5011 1.92392
rclavicle -1.83192e-014 9.34288e-015
rhumerus 10.9648 57.7062 -89.9589
rradius 143.526
rwrist -43.4611
rhand -13.5446 -72.8858
rfingers 7.12502
rthumb 12.5682 102.488
lclavicle -1.83192e-014 9.34288e-015
lhumerus -54.1806 -9.08715 107.951
lradius 120.386
lwrist 25.566
lhand -49.9167 -39.3394
lfingers 7.12502
lthumb -22.5091 -10.6313
rfemur -2.30225 23.9571 26.4797
rtibia 4.41444
rfoot -13.2166 -22.1314
rtoes 1.13457
lfemur 6.01962 -40.3402 -11.3333
ltibia -3.55259
lfoot -18.25 47.22
ltoes 3.58174
1010
root 0.795646 17.5062 8.80995 7.56224 -0.338302 -8.80377
lowerback -1.37071 0.878281 6.25503
upperback -5.09547 1.37121 3.1342
thorax -4.45253 0.501971 -0.283291
lowerneck -7.41183 -4.42281 -3.33786
upperneck 46.5893 -9.15699 5.94367
head 20.0007 -3.51555 1.95306
rclavicle -9.34288e-015 1.08338e-014
rhumerus 11.0593 57.8011 -89.8674
rradius 143.596
rwrist -43.6555
rhand -14.3004 -73.0673
rfingers 7.12502
rthumb 11.8395 102.713
lclavicle -9.34288e-015 1.08338e-014
lhumerus -54.1161 -9.22662 107.95
lradius 120.394
lwrist 25.5219
lhand -49.7684 -38.9128
lfingers 7.12502
lthumb -22.3668 -10.1876
rfemur -2.27531 23.925 26.4791
rtibia 4.41661
rfoot -13.2156 -22.1191
rtoes 1.04957
lfemur 6.04908 -40.3101 -11.3609
ltibia -3.55665
lfoot -18.1815 47.1955
ltoes 3.48196
1011
root 0.795973 17.506 8.81027 7.54727 -0.341687 -8.77616
lowerback -1.38579 0.881453 6.23553
upperback -5.09091 1.37274 3.11276
thorax -4.43872 0.503424 -0.294544
lowerneck -7.42265 -4.41289 -3.32075
upperneck 46.6149 -9.15866 5.96621
head 20.0241 -3.50973 1.96182
rclavicle 6.63444e-015 1.76918e-014
rhumerus 11.1535 57.9292 -89.7596
rradius 143.671
rwrist -43.8761
rhand -15.0391 -73.1847
rfingers 7.12502
rthumb 11.127 102.87
lclavicle 6.63444e-015 1.76918e-014
lhumerus -54.1162 -9.31239 107.97
lradius 120.422
lwrist 25.4967
lhand -49.6592 -38.7785
lfingers 7.12502
lthumb -22.262 -10.0407
rfemur -2.25471 23.9046 26.4509
rtibia 4.40986
rfoot -13.2112 -22.1068
rtoes 1.15612
lfemur 6.07137 -40.3211 -11.4195
ltibia -3.54235
lfoot -18.1427 47.2115
ltoes 3.43247
1012
root 0.796253 17.5057 8.8103 7.55328 -0.351659 -8.76676
lowerback -1.4205 0.881245 6.21449
upperback -5.08489 1.36841 3.10714
thorax -4.41294 0.502696 -0.288122
lowerneck -7.43117 -4.40201 -3.30248
upperneck 46.6413 -9.15862 5.98575
head 20.0468 -3.50357 1.96923
rclavicle 1.29831e-015 2.90226e-014
rhumerus 11.2363 58.0508 -89.6274
rradius 143.742
rwrist -44.1345
rhand -15.7894 -73.2923
rfingers 7.12502
rthumb 10.4033 103.015
lclavicle 1.29831e-015 2.90226e-014
lhumerus -54.1269 -9.3653 108.02
lradius 120.411
lwrist 25.4088
lhand -49.6575 -38.8709
lfingers 7.12502
lthumb -22.2603 -10.1329
rfemur -2.25874 23.9077 26.4335
rtibia 4.39968
rfoot -13.2135 -22.0948
rtoes 1.34123
lfemur 6.07296 -40.3671 -11.4417
ltibia -3.53053
lfoot -18.189 47.2335
ltoes 3.61105
1013
root 0.79604 17.5054 8.81082 7.5601 -0.362266 -8.7934
lowerback -1.46973 0.908834 6.24886
upperback -5.07652 1.39963 3.07942
thorax -4.37338 0.517313 -0.335824
lowerneck -7.45003 -4.43723 -3.24549
upperneck 46.6865 -9.23923 5.99014
head 20.0904 -3.52343 1.94728
rclavicle 2.60936e-014 4.99446e-014
rhumerus 11.2386 57.9508 -89.5946
rradius 143.751
rwrist -44.1327
rhand -15.8361 -73.307
rfingers 7.12502
rthumb 10.3582 103.032
lclavicle 2.60936e-014 4.99446e-014
lhumerus -54.1791 -9.50965 108.09
lradius 120.389
lwrist 25.3254
lhand -49.6933 -38.9067
lfingers 7.12502
lthumb -22.2947 -10.1728
rfemur -2.25969 23.9149 26.4611
rtibia 4.3921
rfoot -13.2288 -22.0842
rtoes 1.43125
lfemur 6.08518 -40.3917 -11.4172
ltibia -3.54357
lfoot -18.1788 47.2599
ltoes 3.62651
1014
root 0.7953 17.5056 8.81136 7.55593 -0.371464 -8.81116
lowerback -1.51472 0.925075 6.27308
upperback -5.07715 1.41663 3.05489
thorax -4.34662 0.524892 -0.374309
lowerneck -7.43505 -4.48299 -3.26458
upperneck 46.7103 -9.33714 6.04122
head 20.1212 -3.55981 1.95971
rclavicle -3.48184e-015 1.73937e-015
rhumerus 11.2071 57.9099 -89.6174
rradius 143.731
rwrist -44.0237
rhand -15.8618 -73.2123
rfingers 7.12502
rthumb 10.3335 102.938
lclavicle -3.48184e-015 1.73937e-015
lhumerus -54.2995 -9.6356 108.173
lradius 120.399
lwrist 25.3185
lhand -49.6284 -38.6243
lfingers 7.12502
lthumb -22.2324 -9.88303
rfemur -2.25326 23.9176 26.4864
rtibia 4.39143
rfoot -13.2256 -22.0699
rtoes 1.50855
lfemur 6.09917 -40.3729 -11.397
ltibia -3.55891
lfoot -18.103 47.2737
ltoes 3.48077
1015
root 0.794655 17.5058 8.81156 7.54129 -0.39923 -8.79495
lowerback -1.54861 0.920639 6.23434
upperback -5.06919 1.40665 3.05577
thorax -4.32 0.522245 -0.35123
lowerneck -7.43542 -4.50036 -3.41761
upperneck 46.7314 -9.41417 6.22185
head 20.1778 -3.59627 2.06638
rclavicle -1.15078e-014 -1.14301e-015
rhumerus 11.2376 57.9493 -89.5892
rradius 143.711
rwrist -43.9239
rhand -15.9285 -73.0965
rfingers 7.12502
rthumb 10.2691 102.826
lclavicle -1.15078e-014 -1.14301e-015
lhumerus -54.4282 -9.68842 108.268
lradius 120.421
lwrist 25.387
lhand -49.5403 -38.4466
lfingers 7.12502
lthumb -22.1479 -9.69529
rfemur -2.23806 23.9292 26.4759
rtibia 4.3921
rfoot -13.1991 -22.0599
rtoes 1.48753
lfemur 6.14339 -40.3807 -11.4438
ltibia -3.56818
lfoot -18.1658 47.2813
ltoes 3.65846
1016
root 0.795321 17.5056 8.81129 7.54391 -0.440935 -8.77799
lowerback -1.58033 0.938895 6.21626
upperback -5.05558 1.42656 3.04212
thorax -4.28646 0.533578 -0.355244
lowerneck -7.46849 -4.53643 -3.4947
upperneck 46.7321 -9.50402 6.32833
head 20.2168 -3.63205 2.11741
rclavicle 1.42535e-014 -1.64494e-014
rhumerus 11.3382 57.9149 -89.4829
rradius 143.708
rwrist -43.9152
rhand -16.0034 -73.0915
rfingers 7.12502
rthumb 10.1969 102.824
lclavicle 1.42535e-014 -1.64494e-014
lhumerus -54.5244 -9.78882 108.367
lradius 120.419
lwrist 25.4767
lhand -49.3981 -38.5914
lfingers 7.12502
lthumb -22.0113 -9.82394
rfemur -2.24977 23.9353 26.4482
rtibia 4.4017
rfoot -13.1905 -22.0426
rtoes 1.37109
lfemur 6.17935 -40.4211 -11.5008
ltibia -3.56833
lfoot -18.3563 47.3189
ltoes 3.92023
1017
root 0.796077 17.5052 8.81096 7.55401 -0.458604 -8.77238
lowerback -1.60493 0.968152 6.23019
upperback -5.06066 1.46268 3.00817
thorax -4.27484 0.550468 -0.398409
lowerneck -7.4792 -4.6011 -3.44716
upperneck 46.7065 -9.60783 6.30099
head 20.2059 -3.66783 2.07376
rclavicle -2.69912e-015 1.13307e-014
rhumerus 11.4095 57.8321 -89.3968
rradius 143.701
rwrist -43.8455
rhand -16.0564 -73.2005
rfingers 7.12502
rthumb 10.1457 102.936
lclavicle -2.69912e-015 1.13307e-014
lhumerus -54.6207 -9.96419 108.444
lradius 120.406
lwrist 25.5366
lhand -49.137 -38.5508
lfingers 7.12502
lthumb -21.7605 -9.75401
rfemur -2.25813 23.9633 26.4335
rtibia 4.39812
rfoot -13.2274 -22.0459
rtoes 1.6569
lfemur 6.18018 -40.4374 -11.5157
ltibia -3.56501
lfoot -18.4849 47.3516
ltoes 3.94305
1018
root 0.795925 17.5047 8.81106 7.53801 -0.464053 -8.76528
lowerback -1.60264 0.963073 6.20916
upperback -5.07574 1.45697 3.01178
thorax -4.29271 0.547885 -0.38297
lowerneck -7.45972 -4.62658 -3.42594
upperneck 46.6924 -9.63407 6.25482
head 20.1853 -3.68108 2.04101
rclavicle -2.98177e-015 -2.7482e-014
rhumerus 11.3748 57.8265 -89.3897
rradius 143.681
rwrist -43.6876
rhand -16.0241 -73.3093
rfingers 7.12502
rthumb 10.1769 103.043
lclavicle -2.98177e-015 -2.7482e-014
lhumerus -54.7144 -10.0662 108.519
lradius 120.402
lwrist 25.5235
lhand -49.0209 -38.3897
lfingers 7.12502
lthumb -21.6491 -9.58004
rfemur -2.226 23.9955 26.4363
rtibia 4.3788
rfoot -13.2549 -22.0711
rtoes 1.78836
lfemur 6.19768 -40.4065 -11.5277
ltibia -3.57104
lfoot -18.5214 47.3334
ltoes 3.96057
